  0
SECTION
  2
HEADER
  9
$ACADVER
  1
AC1014
  9
$HANDSEED
  5
FFFF
  9
$MEASUREMENT
 70
     1
  0
ENDSEC
  0
SECTION
  2
TABLES
  0
TABLE
  2
VPORT
  5
8
330
0
100
AcDbSymbolTable
 70
     4
  0
VPORT
  5
2E
330
8
100
AcDbSymbolTableRecord
100
AcDbViewportTableRecord
  2
*ACTIVE
 70
     0
 10
0.0
 20
0.0
 11
1.0
 21
1.0
 12
210.0
 22
148.5
 13
0.0
 23
0.0
 14
10.0
 24
10.0
 15
10.0
 25
10.0
 16
0.0
 26
0.0
 36
1.0
 17
0.0
 27
0.0
 37
0.0
 40
341.0
 41
1.24
 42
50.0
 43
0.0
 44
0.0
 50
0.0
 51
0.0
 71
     0
 72
   100
 73
     1
 74
     3
 75
     0
 76
     0
 77
     0
 78
     0
  0
ENDTAB
  0
TABLE
  2
LTYPE
  5
5
330
0
100
AcDbSymbolTable
 70
     1
  0
LTYPE
  5
14
330
5
100
AcDbSymbolTableRecord
100
AcDbLinetypeTableRecord
  2
BYBLOCK
 70
     0
  3

 72
    65
 73
     0
 40
0.0
  0
LTYPE
  5
15
330
5
100
AcDbSymbolTableRecord
100
AcDbLinetypeTableRecord
  2
BYLAYER
 70
     0
  3

 72
    65
 73
     0
 40
0.0
  0
LTYPE
  5
16
330
5
100
AcDbSymbolTableRecord
100
AcDbLinetypeTableRecord
  2
CONTINUOUS
 70
     0
  3
Solid line
 72
    65
 73
     0
 40
0.0
  0
ENDTAB
  0
TABLE
  2
LAYER
  5
2
100
AcDbSymbolTable
 70
2
  0
LAYER
  5
50
100
AcDbSymbolTableRecord
100
AcDbLayerTableRecord
  2
0
 70
0
  6
CONTINUOUS
  0
LAYER
  5
51
100
AcDbSymbolTableRecord
100
AcDbLayerTableRecord
  2
Layer_1
 70
0
  6
CONTINUOUS
  0
ENDTAB
  0
TABLE
  2
STYLE
  5
3
330
0
100
AcDbSymbolTable
 70
     1
  0
STYLE
  5
11
330
3
100
AcDbSymbolTableRecord
100
AcDbTextStyleTableRecord
  2
STANDARD
 70
     0
 40
0.0
 41
1.0
 50
0.0
 71
     0
 42
2.5
  3
txt
  4

  0
ENDTAB
  0
TABLE
  2
VIEW
  5
6
330
0
100
AcDbSymbolTable
 70
     0
  0
ENDTAB
  0
TABLE
  2
UCS
  5
7
330
0
100
AcDbSymbolTable
 70
     0
  0
ENDTAB
  0
TABLE
  2
APPID
  5
9
330
0
100
AcDbSymbolTable
 70
     2
  0
APPID
  5
12
330
9
100
AcDbSymbolTableRecord
100
AcDbRegAppTableRecord
  2
ACAD
 70
     0
  0
ENDTAB
  0
TABLE
  2
DIMSTYLE
  5
A
330
0
100
AcDbSymbolTable
 70
     1
  0
DIMSTYLE
105
27
330
A
100
AcDbSymbolTableRecord
100
AcDbDimStyleTableRecord
  2
ISO-25
 70
     0
  3

  4

  5

  6

  7

 40
1.0
 41
2.5
 42
0.625
 43
3.75
 44
1.25
 45
0.0
 46
0.0
 47
0.0
 48
0.0
140
2.5
141
2.5
142
0.0
143
0.03937007874016
144
1.0
145
0.0
146
1.0
147
0.625
 71
     0
 72
     0
 73
     0
 74
     0
 75
     0
 76
     0
 77
     1
 78
     8
170
     0
171
     3
172
     1
173
     0
174
     0
175
     0
176
     0
177
     0
178
     0
270
     2
271
     2
272
     2
273
     2
274
     3
340
11
275
     0
280
     0
281
     0
282
     0
283
     0
284
     8
285
     0
286
     0
287
     3
288
     0
  0
ENDTAB
  0
TABLE
  2
BLOCK_RECORD
  5
1
330
0
100
AcDbSymbolTable
 70
     1
  0
BLOCK_RECORD
  5
1F
330
1
100
AcDbSymbolTableRecord
100
AcDbBlockTableRecord
  2
*MODEL_SPACE
  0
BLOCK_RECORD
  5
1B
330
1
100
AcDbSymbolTableRecord
100
AcDbBlockTableRecord
  2
*PAPER_SPACE
  0
ENDTAB
  0
ENDSEC
  0
SECTION
  2
BLOCKS
  0
BLOCK
  5
20
330
1F
100
AcDbEntity
  8
0
100
AcDbBlockBegin
  2
*MODEL_SPACE
 70
     0
 10
0.0
 20
0.0
 30
0.0
  3
*MODEL_SPACE
  1

  0
ENDBLK
  5
21
330
1F
100
AcDbEntity
  8
0
100
AcDbBlockEnd
  0
BLOCK
  5
1C
330
1B
100
AcDbEntity
 67
     1
  8
0
100
AcDbBlockBegin
  2
*PAPER_SPACE
  1

  0
ENDBLK
  5
1D
330
1B
100
AcDbEntity
 67
     1
  8
0
100
AcDbBlockEnd
  0
ENDSEC
  0
SECTION
  2
ENTITIES
  0
SPLINE
  5
100
100
AcDbEntity
  8
Layer_1
 62
7
100
AcDbSpline
 70
8
 71
3
 72
8
 73
4
 74
0
 40
0
 40
0
 40
0
 40
0
 40
1
 40
1
 40
1
 40
1
 10
41.254634
 20
342.657146
 30
0.0
 10
43.277054
 20
344.126529
 30
0.0
 10
46.159307
 20
343.668630
 30
0.0
 10
47.628694
 20
341.646190
 30
0.0
  0
SPLINE
  5
101
100
AcDbEntity
  8
Layer_1
 62
7
100
AcDbSpline
 70
8
 71
3
 72
8
 73
4
 74
0
 40
0
 40
0
 40
0
 40
0
 40
1
 40
1
 40
1
 40
1
 10
47.628694
 20
341.646190
 30
0.0
 10
49.098079
 20
339.623762
 30
0.0
 10
48.642904
 20
336.741087
 30
0.0
 10
46.620462
 20
335.271700
 30
0.0
  0
SPLINE
  5
102
100
AcDbEntity
  8
Layer_1
 62
7
100
AcDbSpline
 70
8
 71
3
 72
8
 73
4
 74
0
 40
0
 40
0
 40
0
 40
0
 40
1
 40
1
 40
1
 40
1
 10
46.620462
 20
335.271700
 30
0.0
 10
46.216410
 20
334.978138
 30
0.0
 10
45.761183
 20
334.817071
 30
0.0
 10
45.306561
 20
334.674400
 30
0.0
  0
SPLINE
  5
103
100
AcDbEntity
  8
Layer_1
 62
7
100
AcDbSpline
 70
8
 71
3
 72
8
 73
4
 74
0
 40
0
 40
0
 40
0
 40
0
 40
1
 40
1
 40
1
 40
1
 10
45.306561
 20
334.674400
 30
0.0
 10
45.759988
 20
328.544326
 30
0.0
 10
48.273156
 20
321.698073
 30
0.0
 10
51.503393
 20
316.485640
 30
0.0
  0
SPLINE
  5
104
100
AcDbEntity
  8
Layer_1
 62
7
100
AcDbSpline
 70
8
 71
3
 72
8
 73
4
 74
0
 40
0
 40
0
 40
0
 40
0
 40
1
 40
1
 40
1
 40
1
 10
51.503393
 20
316.485640
 30
0.0
 10
53.236366
 20
313.689265
 30
0.0
 10
55.152560
 20
311.368410
 30
0.0
 10
56.895749
 20
309.894418
 30
0.0
  0
SPLINE
  5
105
100
AcDbEntity
  8
Layer_1
 62
7
100
AcDbSpline
 70
8
 71
3
 72
8
 73
4
 74
0
 40
0
 40
0
 40
0
 40
0
 40
1
 40
1
 40
1
 40
1
 10
56.895749
 20
309.894418
 30
0.0
 10
57.384592
 20
309.481074
 30
0.0
 10
57.782246
 20
309.310830
 30
0.0
 10
58.219741
 20
309.045702
 30
0.0
  0
SPLINE
  5
106
100
AcDbEntity
  8
Layer_1
 62
7
100
AcDbSpline
 70
8
 71
3
 72
8
 73
4
 74
0
 40
0
 40
0
 40
0
 40
0
 40
1
 40
1
 40
1
 40
1
 10
58.219741
 20
309.045702
 30
0.0
 10
58.566234
 20
318.320089
 30
0.0
 10
59.149703
 20
328.051236
 30
0.0
 10
60.078280
 20
338.436892
 30
0.0
  0
SPLINE
  5
107
100
AcDbEntity
  8
Layer_1
 62
7
100
AcDbSpline
 70
8
 71
3
 72
8
 73
4
 74
0
 40
0
 40
0
 40
0
 40
0
 40
1
 40
1
 40
1
 40
1
 10
60.078280
 20
338.436892
 30
0.0
 10
59.525024
 20
338.747063
 30
0.0
 10
59.022018
 20
339.156365
 30
0.0
 10
58.628120
 20
339.698512
 30
0.0
  0
SPLINE
  5
108
100
AcDbEntity
  8
Layer_1
 62
7
100
AcDbSpline
 70
8
 71
3
 72
8
 73
4
 74
0
 40
0
 40
0
 40
0
 40
0
 40
1
 40
1
 40
1
 40
1
 10
58.628120
 20
339.698512
 30
0.0
 10
57.158747
 20
341.720943
 30
0.0
 10
57.615485
 20
344.604766
 30
0.0
 10
59.637925
 20
346.074143
 30
0.0
  0
SPLINE
  5
109
100
AcDbEntity
  8
Layer_1
 62
7
100
AcDbSpline
 70
8
 71
3
 72
8
 73
4
 74
0
 40
0
 40
0
 40
0
 40
0
 40
1
 40
1
 40
1
 40
1
 10
59.637925
 20
346.074143
 30
0.0
 10
61.660355
 20
347.543527
 30
0.0
 10
64.542605
 20
347.085628
 30
0.0
 10
66.011980
 20
345.063197
 30
0.0
  0
SPLINE
  5
10a
100
AcDbEntity
  8
Layer_1
 62
7
100
AcDbSpline
 70
8
 71
3
 72
8
 73
4
 74
0
 40
0
 40
0
 40
0
 40
0
 40
1
 40
1
 40
1
 40
1
 10
66.011980
 20
345.063197
 30
0.0
 10
67.481365
 20
343.040768
 30
0.0
 10
67.026191
 20
340.158093
 30
0.0
 10
65.003762
 20
338.688709
 30
0.0
  0
SPLINE
  5
10b
100
AcDbEntity
  8
Layer_1
 62
7
100
AcDbSpline
 70
8
 71
3
 72
8
 73
4
 74
0
 40
0
 40
0
 40
0
 40
0
 40
1
 40
1
 40
1
 40
1
 10
65.003762
 20
338.688709
 30
0.0
 10
64.558951
 20
338.365539
 30
0.0
 10
64.061162
 20
338.171968
 30
0.0
 10
63.557285
 20
338.031293
 30
0.0
  0
SPLINE
  5
10c
100
AcDbEntity
  8
Layer_1
 62
7
100
AcDbSpline
 70
8
 71
3
 72
8
 73
4
 74
0
 40
0
 40
0
 40
0
 40
0
 40
1
 40
1
 40
1
 40
1
 10
63.557285
 20
338.031293
 30
0.0
 10
62.622589
 20
327.562114
 30
0.0
 10
62.031564
 20
317.758993
 30
0.0
 10
61.687161
 20
308.443383
 30
0.0
  0
SPLINE
  5
10d
100
AcDbEntity
  8
Layer_1
 62
7
100
AcDbSpline
 70
8
 71
3
 72
8
 73
4
 74
0
 40
0
 40
0
 40
0
 40
0
 40
1
 40
1
 40
1
 40
1
 10
61.687161
 20
308.443383
 30
0.0
 10
63.846744
 20
309.358483
 30
0.0
 10
67.045748
 20
312.463526
 30
0.0
 10
69.525652
 20
317.119908
 30
0.0
  0
SPLINE
  5
10e
100
AcDbEntity
  8
Layer_1
 62
7
100
AcDbSpline
 70
8
 71
3
 72
8
 73
4
 74
0
 40
0
 40
0
 40
0
 40
0
 40
1
 40
1
 40
1
 40
1
 10
69.525652
 20
317.119908
 30
0.0
 10
72.174599
 20
322.093676
 30
0.0
 10
74.048757
 20
328.505409
 30
0.0
 10
74.101165
 20
334.743489
 30
0.0
  0
SPLINE
  5
10f
100
AcDbEntity
  8
Layer_1
 62
7
100
AcDbSpline
 70
8
 71
3
 72
8
 73
4
 74
0
 40
0
 40
0
 40
0
 40
0
 40
1
 40
1
 40
1
 40
1
 10
74.101165
 20
334.743489
 30
0.0
 10
73.419507
 20
335.058314
 30
0.0
 10
72.785815
 20
335.480630
 30
0.0
 10
72.317634
 20
336.125032
 30
0.0
  0
SPLINE
  5
110
100
AcDbEntity
  8
Layer_1
 62
7
100
AcDbSpline
 70
8
 71
3
 72
8
 73
4
 74
0
 40
0
 40
0
 40
0
 40
0
 40
1
 40
1
 40
1
 40
1
 10
72.317634
 20
336.125032
 30
0.0
 10
70.848259
 20
338.147462
 30
0.0
 10
71.303423
 20
341.030135
 30
0.0
 10
73.325856
 20
342.499520
 30
0.0
  0
SPLINE
  5
111
100
AcDbEntity
  8
Layer_1
 62
7
100
AcDbSpline
 70
8
 71
3
 72
8
 73
4
 74
0
 40
0
 40
0
 40
0
 40
0
 40
1
 40
1
 40
1
 40
1
 10
73.325856
 20
342.499520
 30
0.0
 10
75.348286
 20
343.968895
 30
0.0
 10
78.232121
 20
343.512148
 30
0.0
 10
79.701496
 20
341.489717
 30
0.0
  0
SPLINE
  5
112
100
AcDbEntity
  8
Layer_1
 62
7
100
AcDbSpline
 70
8
 71
3
 72
8
 73
4
 74
0
 40
0
 40
0
 40
0
 40
0
 40
1
 40
1
 40
1
 40
1
 10
79.701496
 20
341.489717
 30
0.0
 10
81.170871
 20
339.467286
 30
0.0
 10
80.712980
 20
336.585047
 30
0.0
 10
78.690541
 20
335.115660
 30
0.0
  0
SPLINE
  5
113
100
AcDbEntity
  8
Layer_1
 62
7
100
AcDbSpline
 70
8
 71
3
 72
8
 73
4
 74
0
 40
0
 40
0
 40
0
 40
0
 40
1
 40
1
 40
1
 40
1
 10
78.690541
 20
335.115660
 30
0.0
 10
78.351973
 20
334.869672
 30
0.0
 10
77.966787
 20
334.755612
 30
0.0
 10
77.590645
 20
334.615893
 30
0.0
  0
SPLINE
  5
114
100
AcDbEntity
  8
Layer_1
 62
7
100
AcDbSpline
 70
8
 71
3
 72
8
 73
4
 74
0
 40
0
 40
0
 40
0
 40
0
 40
1
 40
1
 40
1
 40
1
 10
77.590645
 20
334.615893
 30
0.0
 10
77.517125
 20
327.721566
 30
0.0
 10
75.497949
 20
320.889577
 30
0.0
 10
72.613919
 20
315.474402
 30
0.0
  0
SPLINE
  5
115
100
AcDbEntity
  8
Layer_1
 62
7
100
AcDbSpline
 70
8
 71
3
 72
8
 73
4
 74
0
 40
0
 40
0
 40
0
 40
0
 40
1
 40
1
 40
1
 40
1
 10
72.613919
 20
315.474402
 30
0.0
 10
69.571572
 20
309.761969
 30
0.0
 10
65.834385
 20
305.424812
 30
0.0
 10
61.520785
 20
304.638437
 30
0.0
  0
SPLINE
  5
116
100
AcDbEntity
  8
Layer_1
 62
7
100
AcDbSpline
 70
8
 71
3
 72
8
 73
4
 74
0
 40
0
 40
0
 40
0
 40
0
 40
1
 40
1
 40
1
 40
1
 10
61.520785
 20
304.638437
 30
0.0
 10
61.518785
 20
304.638069
 30
0.0
 10
61.515685
 20
304.638352
 30
0.0
 10
61.513685
 20
304.638202
 30
0.0
  0
SPLINE
  5
117
100
AcDbEntity
  8
Layer_1
 62
7
100
AcDbSpline
 70
8
 71
3
 72
8
 73
4
 74
0
 40
0
 40
0
 40
0
 40
0
 40
1
 40
1
 40
1
 40
1
 10
61.513685
 20
304.638202
 30
0.0
 10
61.443795
 20
302.269967
 30
0.0
 10
61.457425
 20
300.071190
 30
0.0
 10
61.423535
 20
297.774330
 30
0.0
  0
LINE
  5
118
100
AcDbEntity
  8
Layer_1
 62
7
100
AcDbLine
 10
61.423535
 20
297.774330
 30
0.0
 11
63.312647
 21
297.686263
 31
0.0
  0
SPLINE
  5
119
100
AcDbEntity
  8
Layer_1
 62
7
100
AcDbSpline
 70
8
 71
3
 72
8
 73
4
 74
0
 40
0
 40
0
 40
0
 40
0
 40
1
 40
1
 40
1
 40
1
 10
63.312647
 20
297.686263
 30
0.0
 10
64.277680
 20
297.641225
 30
0.0
 10
64.879417
 20
296.904645
 30
0.0
 10
64.834954
 20
295.939573
 30
0.0
  0
SPLINE
  5
11a
100
AcDbEntity
  8
Layer_1
 62
7
100
AcDbSpline
 70
8
 71
3
 72
8
 73
4
 74
0
 40
0
 40
0
 40
0
 40
0
 40
1
 40
1
 40
1
 40
1
 10
64.834954
 20
295.939573
 30
0.0
 10
64.789914
 20
294.974531
 30
0.0
 10
64.165959
 20
294.729093
 30
0.0
 10
63.200886
 20
294.773555
 30
0.0
  0
LINE
  5
11b
100
AcDbEntity
  8
Layer_1
 62
7
100
AcDbLine
 10
63.200886
 20
294.773555
 30
0.0
 11
61.314105
 21
294.913889
 31
0.0
  0
SPLINE
  5
11c
100
AcDbEntity
  8
Layer_1
 62
7
100
AcDbSpline
 70
8
 71
3
 72
8
 73
4
 74
0
 40
0
 40
0
 40
0
 40
0
 40
1
 40
1
 40
1
 40
1
 10
61.314105
 20
294.913889
 30
0.0
 10
60.828235
 20
226.145848
 30
0.0
 10
76.452289
 20
188.741790
 30
0.0
 10
92.039159
 20
157.704260
 30
0.0
  0
SPLINE
  5
11d
100
AcDbEntity
  8
Layer_1
 62
7
100
AcDbSpline
 70
8
 71
3
 72
8
 73
4
 74
0
 40
0
 40
0
 40
0
 40
0
 40
1
 40
1
 40
1
 40
1
 10
92.039159
 20
157.704260
 30
0.0
 10
110.733510
 20
120.478890
 30
0.0
 10
129.588950
 20
90.973640
 30
0.0
 10
119.819040
 20
25.411790
 30
0.0
  0
SPLINE
  5
11e
100
AcDbEntity
  8
Layer_1
 62
7
100
AcDbSpline
 70
8
 71
3
 72
8
 73
4
 74
0
 40
0
 40
0
 40
0
 40
0
 40
1
 40
1
 40
1
 40
1
 10
119.819040
 20
25.411790
 30
0.0
 10
119.676090
 20
24.456010
 30
0.0
 10
118.785480
 20
23.797050
 30
0.0
 10
117.829690
 20
23.939870
 30
0.0
  0
SPLINE
  5
11f
100
AcDbEntity
  8
Layer_1
 62
7
100
AcDbSpline
 70
8
 71
3
 72
8
 73
4
 74
0
 40
0
 40
0
 40
0
 40
0
 40
1
 40
1
 40
1
 40
1
 10
117.829690
 20
23.939870
 30
0.0
 10
116.873790
 20
24.082030
 30
0.0
 10
116.214120
 20
24.972160
 30
0.0
 10
116.356220
 20
25.928090
 30
0.0
  0
SPLINE
  5
120
100
AcDbEntity
  8
Layer_1
 62
7
100
AcDbSpline
 70
8
 71
3
 72
8
 73
4
 74
0
 40
0
 40
0
 40
0
 40
0
 40
1
 40
1
 40
1
 40
1
 10
116.356220
 20
25.928090
 30
0.0
 10
126.008100
 20
90.697520
 30
0.0
 10
107.697020
 20
118.723160
 30
0.0
 10
88.909965
 20
156.133130
 30
0.0
  0
SPLINE
  5
121
100
AcDbEntity
  8
Layer_1
 62
7
100
AcDbSpline
 70
8
 71
3
 72
8
 73
4
 74
0
 40
0
 40
0
 40
0
 40
0
 40
1
 40
1
 40
1
 40
1
 10
88.909965
 20
156.133130
 30
0.0
 10
73.234120
 20
187.347820
 30
0.0
 10
57.165347
 20
225.692060
 30
0.0
 10
57.629443
 20
295.144143
 30
0.0
  0
LINE
  5
122
100
AcDbEntity
  8
Layer_1
 62
7
100
AcDbLine
 10
57.629443
 20
295.144143
 30
0.0
 11
56.184008
 21
295.194968
 31
0.0
  0
SPLINE
  5
123
100
AcDbEntity
  8
Layer_1
 62
7
100
AcDbSpline
 70
8
 71
3
 72
8
 73
4
 74
0
 40
0
 40
0
 40
0
 40
0
 40
1
 40
1
 40
1
 40
1
 10
56.184008
 20
295.194968
 30
0.0
 10
55.218967
 20
295.240004
 30
0.0
 10
54.259456
 20
295.446880
 30
0.0
 10
54.303919
 20
296.411952
 30
0.0
  0
SPLINE
  5
124
100
AcDbEntity
  8
Layer_1
 62
7
100
AcDbSpline
 70
8
 71
3
 72
8
 73
4
 74
0
 40
0
 40
0
 40
0
 40
0
 40
1
 40
1
 40
1
 40
1
 10
54.303919
 20
296.411952
 30
0.0
 10
54.348959
 20
297.377005
 30
0.0
 10
55.058982
 20
298.069774
 30
0.0
 10
56.024054
 20
298.025311
 30
0.0
  0
LINE
  5
125
100
AcDbEntity
  8
Layer_1
 62
7
100
AcDbLine
 10
56.024054
 20
298.025311
 30
0.0
 11
57.940884
 21
297.935653
 31
0.0
  0
SPLINE
  5
126
100
AcDbEntity
  8
Layer_1
 62
7
100
AcDbSpline
 70
8
 71
3
 72
8
 73
4
 74
0
 40
0
 40
0
 40
0
 40
0
 40
1
 40
1
 40
1
 40
1
 10
57.940884
 20
297.935653
 30
0.0
 10
57.975014
 20
300.314591
 30
0.0
 10
57.966824
 20
302.610306
 30
0.0
 10
58.039354
 20
305.063886
 30
0.0
  0
SPLINE
  5
127
100
AcDbEntity
  8
Layer_1
 62
7
100
AcDbSpline
 70
8
 71
3
 72
8
 73
4
 74
0
 40
0
 40
0
 40
0
 40
0
 40
1
 40
1
 40
1
 40
1
 10
58.039354
 20
305.063886
 30
0.0
 10
56.867382
 20
305.535744
 30
0.0
 10
55.728818
 20
306.295994
 30
0.0
 10
54.634993
 20
307.220895
 30
0.0
  0
SPLINE
  5
128
100
AcDbEntity
  8
Layer_1
 62
7
100
AcDbSpline
 70
8
 71
3
 72
8
 73
4
 74
0
 40
0
 40
0
 40
0
 40
0
 40
1
 40
1
 40
1
 40
1
 10
54.634993
 20
307.220895
 30
0.0
 10
52.486891
 20
309.037256
 30
0.0
 10
50.408752
 20
311.608341
 30
0.0
 10
48.529353
 20
314.641009
 30
0.0
  0
SPLINE
  5
129
100
AcDbEntity
  8
Layer_1
 62
7
100
AcDbSpline
 70
8
 71
3
 72
8
 73
4
 74
0
 40
0
 40
0
 40
0
 40
0
 40
1
 40
1
 40
1
 40
1
 10
48.529353
 20
314.641009
 30
0.0
 10
44.931691
 20
320.446339
 30
0.0
 10
42.139857
 20
327.918855
 30
0.0
 10
41.759895
 20
334.996908
 30
0.0
  0
SPLINE
  5
12a
100
AcDbEntity
  8
Layer_1
 62
7
100
AcDbSpline
 70
8
 71
3
 72
8
 73
4
 74
0
 40
0
 40
0
 40
0
 40
0
 40
1
 40
1
 40
1
 40
1
 10
41.759895
 20
334.996908
 30
0.0
 10
41.182070
 20
335.309356
 30
0.0
 10
40.653130
 20
335.719406
 30
0.0
 10
40.244831
 20
336.281384
 30
0.0
  0
SPLINE
  5
12b
100
AcDbEntity
  8
Layer_1
 62
7
100
AcDbSpline
 70
8
 71
3
 72
8
 73
4
 74
0
 40
0
 40
0
 40
0
 40
0
 40
1
 40
1
 40
1
 40
1
 10
40.244831
 20
336.281384
 30
0.0
 10
38.775454
 20
338.303824
 30
0.0
 10
39.232234
 20
341.187645
 30
0.0
 10
41.254643
 20
342.657026
 30
0.0
  0
LINE
  5
12c
100
AcDbEntity
  8
Layer_1
 62
7
100
AcDbLine
 10
41.254643
 20
342.657026
 30
0.0
 11
41.254634
 21
342.657146
 31
0.0
  0
SPLINE
  5
12d
100
AcDbEntity
  8
Layer_1
 62
7
100
AcDbSpline
 70
8
 71
3
 72
8
 73
4
 74
0
 40
0
 40
0
 40
0
 40
0
 40
1
 40
1
 40
1
 40
1
 10
43.311873
 20
339.825584
 30
0.0
 10
42.819727
 20
339.468022
 30
0.0
 10
42.718829
 20
338.830902
 30
0.0
 10
43.076391
 20
338.338754
 30
0.0
  0
SPLINE
  5
12e
100
AcDbEntity
  8
Layer_1
 62
7
100
AcDbSpline
 70
8
 71
3
 72
8
 73
4
 74
0
 40
0
 40
0
 40
0
 40
0
 40
1
 40
1
 40
1
 40
1
 10
43.076391
 20
338.338754
 30
0.0
 10
43.433944
 20
337.846606
 30
0.0
 10
44.071075
 20
337.745700
 30
0.0
 10
44.563213
 20
338.103260
 30
0.0
  0
SPLINE
  5
12f
100
AcDbEntity
  8
Layer_1
 62
7
100
AcDbSpline
 70
8
 71
3
 72
8
 73
4
 74
0
 40
0
 40
0
 40
0
 40
0
 40
1
 40
1
 40
1
 40
1
 10
44.563213
 20
338.103260
 30
0.0
 10
45.055370
 20
338.460825
 30
0.0
 10
45.154691
 20
339.096804
 30
0.0
 10
44.797131
 20
339.588941
 30
0.0
  0
SPLINE
  5
130
100
AcDbEntity
  8
Layer_1
 62
7
100
AcDbSpline
 70
8
 71
3
 72
8
 73
4
 74
0
 40
0
 40
0
 40
0
 40
0
 40
1
 40
1
 40
1
 40
1
 10
44.797131
 20
339.588941
 30
0.0
 10
44.439568
 20
340.081087
 30
0.0
 10
43.804021
 20
340.183147
 30
0.0
 10
43.311873
 20
339.825584
 30
0.0
  0
LINE
  5
131
100
AcDbEntity
  8
Layer_1
 62
7
100
AcDbLine
 10
43.311873
 20
339.825584
 30
0.0
 11
43.311873
 21
339.825584
 31
0.0
  0
SPLINE
  5
132
100
AcDbEntity
  8
Layer_1
 62
7
100
AcDbSpline
 70
8
 71
3
 72
8
 73
4
 74
0
 40
0
 40
0
 40
0
 40
0
 40
1
 40
1
 40
1
 40
1
 10
61.695174
 20
343.242583
 30
0.0
 10
61.203028
 20
342.885020
 30
0.0
 10
61.102120
 20
342.247899
 30
0.0
 10
61.459682
 20
341.755751
 30
0.0
  0
SPLINE
  5
133
100
AcDbEntity
  8
Layer_1
 62
7
100
AcDbSpline
 70
8
 71
3
 72
8
 73
4
 74
0
 40
0
 40
0
 40
0
 40
0
 40
1
 40
1
 40
1
 40
1
 10
61.459682
 20
341.755751
 30
0.0
 10
61.817243
 20
341.263614
 30
0.0
 10
62.454367
 20
341.162697
 30
0.0
 10
62.946512
 20
341.520269
 30
0.0
  0
SPLINE
  5
134
100
AcDbEntity
  8
Layer_1
 62
7
100
AcDbSpline
 70
8
 71
3
 72
8
 73
4
 74
0
 40
0
 40
0
 40
0
 40
0
 40
1
 40
1
 40
1
 40
1
 10
62.946512
 20
341.520269
 30
0.0
 10
63.438649
 20
341.877830
 30
0.0
 10
63.537992
 20
342.513803
 30
0.0
 10
63.180430
 20
343.005950
 30
0.0
  0
SPLINE
  5
135
100
AcDbEntity
  8
Layer_1
 62
7
100
AcDbSpline
 70
8
 71
3
 72
8
 73
4
 74
0
 40
0
 40
0
 40
0
 40
0
 40
1
 40
1
 40
1
 40
1
 10
63.180430
 20
343.005950
 30
0.0
 10
62.822857
 20
343.498094
 30
0.0
 10
62.187320
 20
343.600155
 30
0.0
 10
61.695174
 20
343.242583
 30
0.0
  0
LINE
  5
136
100
AcDbEntity
  8
Layer_1
 62
7
100
AcDbLine
 10
61.695174
 20
343.242583
 30
0.0
 11
61.695174
 21
343.242583
 31
0.0
  0
SPLINE
  5
137
100
AcDbEntity
  8
Layer_1
 62
7
100
AcDbSpline
 70
8
 71
3
 72
8
 73
4
 74
0
 40
0
 40
0
 40
0
 40
0
 40
1
 40
1
 40
1
 40
1
 10
75.383105
 20
339.667960
 30
0.0
 10
74.890968
 20
339.310399
 30
0.0
 10
74.791636
 20
338.674418
 30
0.0
 10
75.149186
 20
338.182280
 30
0.0
  0
SPLINE
  5
138
100
AcDbEntity
  8
Layer_1
 62
7
100
AcDbSpline
 70
8
 71
3
 72
8
 73
4
 74
0
 40
0
 40
0
 40
0
 40
0
 40
1
 40
1
 40
1
 40
1
 10
75.149186
 20
338.182280
 30
0.0
 10
75.506759
 20
337.690135
 30
0.0
 10
76.141154
 20
337.589660
 30
0.0
 10
76.633292
 20
337.947221
 30
0.0
  0
SPLINE
  5
139
100
AcDbEntity
  8
Layer_1
 62
7
100
AcDbSpline
 70
8
 71
3
 72
8
 73
4
 74
0
 40
0
 40
0
 40
0
 40
0
 40
1
 40
1
 40
1
 40
1
 10
76.633292
 20
337.947221
 30
0.0
 10
77.125438
 20
338.304783
 30
0.0
 10
77.227498
 20
338.940322
 30
0.0
 10
76.869936
 20
339.432468
 30
0.0
  0
SPLINE
  5
13a
100
AcDbEntity
  8
Layer_1
 62
7
100
AcDbSpline
 70
8
 71
3
 72
8
 73
4
 74
0
 40
0
 40
0
 40
0
 40
0
 40
1
 40
1
 40
1
 40
1
 10
76.869936
 20
339.432468
 30
0.0
 10
76.512373
 20
339.924615
 30
0.0
 10
75.875251
 20
340.025523
 30
0.0
 10
75.383105
 20
339.667960
 30
0.0
  0
LINE
  5
13b
100
AcDbEntity
  8
Layer_1
 62
7
100
AcDbLine
 10
75.383105
 20
339.667960
 30
0.0
 11
75.383105
 21
339.667960
 31
0.0
  0
LINE
  5
13c
100
AcDbEntity
  8
Layer_1
 62
1
100
AcDbLine
 10
245.600572
 20
290.912289
 30
0.0
 11
248.600566
 21
290.912289
 31
0.0
  0
LINE
  5
13d
100
AcDbEntity
  8
Layer_1
 62
1
100
AcDbLine
 10
248.600566
 20
290.912289
 30
0.0
 11
248.600566
 21
287.912296
 31
0.0
  0
LINE
  5
13e
100
AcDbEntity
  8
Layer_1
 62
1
100
AcDbLine
 10
248.600566
 20
287.912296
 30
0.0
 11
245.600572
 21
287.912296
 31
0.0
  0
LINE
  5
13f
100
AcDbEntity
  8
Layer_1
 62
1
100
AcDbLine
 10
245.600572
 20
287.912296
 30
0.0
 11
245.600572
 21
290.912289
 31
0.0
  0
LINE
  5
140
100
AcDbEntity
  8
Layer_1
 62
1
100
AcDbLine
 10
245.600572
 20
279.488736
 30
0.0
 11
248.600566
 21
279.488736
 31
0.0
  0
LINE
  5
141
100
AcDbEntity
  8
Layer_1
 62
1
100
AcDbLine
 10
248.600566
 20
279.488736
 30
0.0
 11
248.600566
 21
276.488744
 31
0.0
  0
LINE
  5
142
100
AcDbEntity
  8
Layer_1
 62
1
100
AcDbLine
 10
248.600566
 20
276.488744
 30
0.0
 11
245.600572
 21
276.488744
 31
0.0
  0
LINE
  5
143
100
AcDbEntity
  8
Layer_1
 62
1
100
AcDbLine
 10
245.600572
 20
276.488744
 30
0.0
 11
245.600572
 21
279.488736
 31
0.0
  0
LINE
  5
144
100
AcDbEntity
  8
Layer_1
 62
1
100
AcDbLine
 10
245.600572
 20
285.200513
 30
0.0
 11
248.600566
 21
285.200513
 31
0.0
  0
LINE
  5
145
100
AcDbEntity
  8
Layer_1
 62
1
100
AcDbLine
 10
248.600566
 20
285.200513
 30
0.0
 11
248.600566
 21
282.200521
 31
0.0
  0
LINE
  5
146
100
AcDbEntity
  8
Layer_1
 62
1
100
AcDbLine
 10
248.600566
 20
282.200521
 30
0.0
 11
245.600572
 21
282.200521
 31
0.0
  0
LINE
  5
147
100
AcDbEntity
  8
Layer_1
 62
1
100
AcDbLine
 10
245.600572
 20
282.200521
 30
0.0
 11
245.600572
 21
285.200513
 31
0.0
  0
SPLINE
  5
148
100
AcDbEntity
  8
Layer_1
 62
1
100
AcDbSpline
 70
8
 71
3
 72
8
 73
4
 74
0
 40
0
 40
0
 40
0
 40
0
 40
1
 40
1
 40
1
 40
1
 10
247.043734
 20
292.663301
 30
0.0
 10
244.625044
 20
292.650606
 30
0.0
 10
242.681204
 20
290.862691
 30
0.0
 10
242.681204
 20
290.862691
 30
0.0
  0
SPLINE
  5
149
100
AcDbEntity
  8
Layer_1
 62
1
100
AcDbSpline
 70
8
 71
3
 72
8
 73
4
 74
0
 40
0
 40
0
 40
0
 40
0
 40
1
 40
1
 40
1
 40
1
 10
242.681204
 20
290.862691
 30
0.0
 10
242.681204
 20
290.862691
 30
0.0
 10
244.213384
 20
279.061140
 30
0.0
 10
244.951354
 20
273.183839
 30
0.0
  0
LINE
  5
14a
100
AcDbEntity
  8
Layer_1
 62
1
100
AcDbLine
 10
244.951354
 20
273.183839
 30
0.0
 11
246.766744
 21
258.725130
 31
0.0
  0
LINE
  5
14b
100
AcDbEntity
  8
Layer_1
 62
1
100
AcDbLine
 10
246.766744
 20
258.725130
 30
0.0
 11
247.507784
 21
258.725130
 31
0.0
  0
LINE
  5
14c
100
AcDbEntity
  8
Layer_1
 62
1
100
AcDbLine
 10
247.507784
 20
258.725130
 30
0.0
 11
249.291134
 21
273.294359
 31
0.0
  0
SPLINE
  5
14d
100
AcDbEntity
  8
Layer_1
 62
1
100
AcDbSpline
 70
8
 71
3
 72
8
 73
4
 74
0
 40
0
 40
0
 40
0
 40
0
 40
1
 40
1
 40
1
 40
1
 10
249.291134
 20
273.294359
 30
0.0
 10
250.326814
 20
278.993966
 30
0.0
 10
251.519934
 20
290.862691
 30
0.0
 10
251.519934
 20
290.862691
 30
0.0
  0
SPLINE
  5
14e
100
AcDbEntity
  8
Layer_1
 62
1
100
AcDbSpline
 70
8
 71
3
 72
8
 73
4
 74
0
 40
0
 40
0
 40
0
 40
0
 40
1
 40
1
 40
1
 40
1
 10
251.519934
 20
290.862691
 30
0.0
 10
251.519934
 20
290.862691
 30
0.0
 10
249.541484
 20
292.663278
 30
0.0
 10
247.100564
 20
292.663301
 30
0.0
  0
SPLINE
  5
14f
100
AcDbEntity
  8
Layer_1
 62
1
100
AcDbSpline
 70
8
 71
3
 72
8
 73
4
 74
0
 40
0
 40
0
 40
0
 40
0
 40
1
 40
1
 40
1
 40
1
 10
247.100564
 20
292.663301
 30
0.0
 10
247.081564
 20
292.663351
 30
0.0
 10
247.062697
 20
292.663301
 30
0.0
 10
247.043764
 20
292.663301
 30
0.0
  0
LINE
  5
150
100
AcDbEntity
  8
Layer_1
 62
1
100
AcDbLine
 10
247.043764
 20
292.663301
 30
0.0
 11
247.043734
 21
292.663301
 31
0.0
  0
LINE
  5
151
100
AcDbEntity
  8
Layer_1
 62
1
100
AcDbLine
 10
268.530972
 20
296.039829
 30
0.0
 11
271.530966
 21
296.039829
 31
0.0
  0
LINE
  5
152
100
AcDbEntity
  8
Layer_1
 62
1
100
AcDbLine
 10
271.530966
 20
296.039829
 30
0.0
 11
271.530966
 21
293.039836
 31
0.0
  0
LINE
  5
153
100
AcDbEntity
  8
Layer_1
 62
1
100
AcDbLine
 10
271.530966
 20
293.039836
 30
0.0
 11
268.530972
 21
293.039836
 31
0.0
  0
LINE
  5
154
100
AcDbEntity
  8
Layer_1
 62
1
100
AcDbLine
 10
268.530972
 20
293.039836
 30
0.0
 11
268.530972
 21
296.039829
 31
0.0
  0
LINE
  5
155
100
AcDbEntity
  8
Layer_1
 62
1
100
AcDbLine
 10
268.530972
 20
284.616276
 30
0.0
 11
271.530966
 21
284.616276
 31
0.0
  0
LINE
  5
156
100
AcDbEntity
  8
Layer_1
 62
1
100
AcDbLine
 10
271.530966
 20
284.616276
 30
0.0
 11
271.530966
 21
281.616284
 31
0.0
  0
LINE
  5
157
100
AcDbEntity
  8
Layer_1
 62
1
100
AcDbLine
 10
271.530966
 20
281.616284
 30
0.0
 11
268.530972
 21
281.616284
 31
0.0
  0
LINE
  5
158
100
AcDbEntity
  8
Layer_1
 62
1
100
AcDbLine
 10
268.530972
 20
281.616284
 30
0.0
 11
268.530972
 21
284.616276
 31
0.0
  0
LINE
  5
159
100
AcDbEntity
  8
Layer_1
 62
1
100
AcDbLine
 10
268.530972
 20
290.328053
 30
0.0
 11
271.530966
 21
290.328053
 31
0.0
  0
LINE
  5
15a
100
AcDbEntity
  8
Layer_1
 62
1
100
AcDbLine
 10
271.530966
 20
290.328053
 30
0.0
 11
271.530966
 21
287.328061
 31
0.0
  0
LINE
  5
15b
100
AcDbEntity
  8
Layer_1
 62
1
100
AcDbLine
 10
271.530966
 20
287.328061
 30
0.0
 11
268.530972
 21
287.328061
 31
0.0
  0
LINE
  5
15c
100
AcDbEntity
  8
Layer_1
 62
1
100
AcDbLine
 10
268.530972
 20
287.328061
 30
0.0
 11
268.530972
 21
290.328053
 31
0.0
  0
SPLINE
  5
15d
100
AcDbEntity
  8
Layer_1
 62
1
100
AcDbSpline
 70
8
 71
3
 72
8
 73
4
 74
0
 40
0
 40
0
 40
0
 40
0
 40
1
 40
1
 40
1
 40
1
 10
269.974131
 20
297.790841
 30
0.0
 10
267.555441
 20
297.778146
 30
0.0
 10
265.611601
 20
295.990231
 30
0.0
 10
265.611601
 20
295.990231
 30
0.0
  0
SPLINE
  5
15e
100
AcDbEntity
  8
Layer_1
 62
1
100
AcDbSpline
 70
8
 71
3
 72
8
 73
4
 74
0
 40
0
 40
0
 40
0
 40
0
 40
1
 40
1
 40
1
 40
1
 10
265.611601
 20
295.990231
 30
0.0
 10
265.611601
 20
295.990231
 30
0.0
 10
267.143781
 20
284.188680
 30
0.0
 10
267.881751
 20
278.311379
 30
0.0
  0
LINE
  5
15f
100
AcDbEntity
  8
Layer_1
 62
1
100
AcDbLine
 10
267.881751
 20
278.311379
 30
0.0
 11
268.662808
 21
263.973193
 31
0.0
  0
LINE
  5
160
100
AcDbEntity
  8
Layer_1
 62
1
100
AcDbLine
 10
268.662808
 20
263.973193
 30
0.0
 11
271.253729
 21
263.771595
 31
0.0
  0
LINE
  5
161
100
AcDbEntity
  8
Layer_1
 62
1
100
AcDbLine
 10
271.253729
 20
263.771595
 30
0.0
 11
272.221531
 21
278.421899
 31
0.0
  0
SPLINE
  5
162
100
AcDbEntity
  8
Layer_1
 62
1
100
AcDbSpline
 70
8
 71
3
 72
8
 73
4
 74
0
 40
0
 40
0
 40
0
 40
0
 40
1
 40
1
 40
1
 40
1
 10
272.221531
 20
278.421899
 30
0.0
 10
273.257211
 20
284.121507
 30
0.0
 10
274.450331
 20
295.990231
 30
0.0
 10
274.450331
 20
295.990231
 30
0.0
  0
SPLINE
  5
163
100
AcDbEntity
  8
Layer_1
 62
1
100
AcDbSpline
 70
8
 71
3
 72
8
 73
4
 74
0
 40
0
 40
0
 40
0
 40
0
 40
1
 40
1
 40
1
 40
1
 10
274.450331
 20
295.990231
 30
0.0
 10
274.450331
 20
295.990231
 30
0.0
 10
272.471881
 20
297.790818
 30
0.0
 10
270.030961
 20
297.790841
 30
0.0
  0
SPLINE
  5
164
100
AcDbEntity
  8
Layer_1
 62
1
100
AcDbSpline
 70
8
 71
3
 72
8
 73
4
 74
0
 40
0
 40
0
 40
0
 40
0
 40
1
 40
1
 40
1
 40
1
 10
270.030961
 20
297.790841
 30
0.0
 10
270.011961
 20
297.790891
 30
0.0
 10
269.993061
 20
297.790891
 30
0.0
 10
269.974161
 20
297.790841
 30
0.0
  0
LINE
  5
165
100
AcDbEntity
  8
Layer_1
 62
1
100
AcDbLine
 10
269.974161
 20
297.790841
 30
0.0
 11
269.974131
 21
297.790841
 31
0.0
  0
SPLINE
  5
166
100
AcDbEntity
  8
Layer_1
 62
1
100
AcDbSpline
 70
8
 71
3
 72
8
 73
4
 74
0
 40
0
 40
0
 40
0
 40
0
 40
1
 40
1
 40
1
 40
1
 10
140.036940
 20
294.926257
 30
0.0
 10
140.036940
 20
285.305008
 30
0.0
 10
132.237379
 20
277.505445
 30
0.0
 10
122.616130
 20
277.505442
 30
0.0
  0
SPLINE
  5
167
100
AcDbEntity
  8
Layer_1
 62
1
100
AcDbSpline
 70
8
 71
3
 72
8
 73
4
 74
0
 40
0
 40
0
 40
0
 40
0
 40
1
 40
1
 40
1
 40
1
 10
122.616130
 20
277.505442
 30
0.0
 10
117.995842
 20
277.505441
 30
0.0
 10
113.564788
 20
279.340842
 30
0.0
 10
110.297750
 20
282.607879
 30
0.0
  0
SPLINE
  5
168
100
AcDbEntity
  8
Layer_1
 62
1
100
AcDbSpline
 70
8
 71
3
 72
8
 73
4
 74
0
 40
0
 40
0
 40
0
 40
0
 40
1
 40
1
 40
1
 40
1
 10
110.297750
 20
282.607879
 30
0.0
 10
107.030713
 20
285.874916
 30
0.0
 10
105.195310
 20
290.305969
 30
0.0
 10
105.195310
 20
294.926257
 30
0.0
  0
SPLINE
  5
169
100
AcDbEntity
  8
Layer_1
 62
1
100
AcDbSpline
 70
8
 71
3
 72
8
 73
4
 74
0
 40
0
 40
0
 40
0
 40
0
 40
1
 40
1
 40
1
 40
1
 10
105.195310
 20
294.926257
 30
0.0
 10
105.195310
 20
299.546545
 30
0.0
 10
107.030713
 20
303.977598
 30
0.0
 10
110.297751
 20
307.244635
 30
0.0
  0
SPLINE
  5
16a
100
AcDbEntity
  8
Layer_1
 62
1
100
AcDbSpline
 70
8
 71
3
 72
8
 73
4
 74
0
 40
0
 40
0
 40
0
 40
0
 40
1
 40
1
 40
1
 40
1
 10
110.297751
 20
307.244635
 30
0.0
 10
113.564788
 20
310.511671
 30
0.0
 10
117.995842
 20
312.347072
 30
0.0
 10
122.616130
 20
312.347071
 30
0.0
  0
SPLINE
  5
16b
100
AcDbEntity
  8
Layer_1
 62
1
100
AcDbSpline
 70
8
 71
3
 72
8
 73
4
 74
0
 40
0
 40
0
 40
0
 40
0
 40
1
 40
1
 40
1
 40
1
 10
122.616130
 20
312.347071
 30
0.0
 10
132.237378
 20
312.347068
 30
0.0
 10
140.036940
 20
304.547505
 30
0.0
 10
140.036940
 20
294.926257
 30
0.0
  0
LINE
  5
16c
100
AcDbEntity
  8
Layer_1
 62
1
100
AcDbLine
 10
140.036940
 20
294.926257
 30
0.0
 11
140.036940
 21
294.926257
 31
0.0
  0
LINE
  5
16d
100
AcDbEntity
  8
Layer_1
 62
1
100
AcDbLine
 10
124.116120
 20
300.926257
 30
0.0
 11
124.116120
 21
288.926257
 31
0.0
  0
LINE
  5
16e
100
AcDbEntity
  8
Layer_1
 62
1
100
AcDbLine
 10
124.116120
 20
288.926257
 30
0.0
 11
121.116120
 21
288.926257
 31
0.0
  0
LINE
  5
16f
100
AcDbEntity
  8
Layer_1
 62
1
100
AcDbLine
 10
121.116120
 20
288.926257
 30
0.0
 11
121.116120
 21
300.926257
 31
0.0
  0
LINE
  5
170
100
AcDbEntity
  8
Layer_1
 62
1
100
AcDbLine
 10
121.116120
 20
300.926257
 30
0.0
 11
124.116120
 21
300.926257
 31
0.0
  0
LINE
  5
171
100
AcDbEntity
  8
Layer_1
 62
5
100
AcDbLine
 10
116.615974
 20
296.426165
 30
0.0
 11
116.615974
 21
293.426348
 31
0.0
  0
LINE
  5
172
100
AcDbEntity
  8
Layer_1
 62
5
100
AcDbLine
 10
116.615974
 20
293.426348
 30
0.0
 11
121.115960
 21
293.426348
 31
0.0
  0
LINE
  5
173
100
AcDbEntity
  8
Layer_1
 62
5
100
AcDbLine
 10
121.115960
 20
293.426348
 30
0.0
 11
121.115960
 21
296.426165
 31
0.0
  0
LINE
  5
174
100
AcDbEntity
  8
Layer_1
 62
5
100
AcDbLine
 10
121.115960
 20
296.426165
 30
0.0
 11
116.615974
 21
296.426165
 31
0.0
  0
LINE
  5
175
100
AcDbEntity
  8
Layer_1
 62
5
100
AcDbLine
 10
124.116293
 20
296.426165
 30
0.0
 11
124.116293
 21
293.426348
 31
0.0
  0
LINE
  5
176
100
AcDbEntity
  8
Layer_1
 62
5
100
AcDbLine
 10
124.116293
 20
293.426348
 30
0.0
 11
128.616276
 21
293.426348
 31
0.0
  0
LINE
  5
177
100
AcDbEntity
  8
Layer_1
 62
5
100
AcDbLine
 10
128.616276
 20
293.426348
 30
0.0
 11
128.616276
 21
296.426165
 31
0.0
  0
LINE
  5
178
100
AcDbEntity
  8
Layer_1
 62
5
100
AcDbLine
 10
128.616276
 20
296.426165
 30
0.0
 11
124.116293
 21
296.426165
 31
0.0
  0
ENDSEC
  0
SECTION
  2
OBJECTS
  0
DICTIONARY
  5
C
330
0
100
AcDbDictionary
  3
ACAD_GROUP
350
D
  3
ACAD_MLINESTYLE
350
17
  0
DICTIONARY
  5
D
330
C
100
AcDbDictionary
  0
DICTIONARY
  5
1A
330
C
100
AcDbDictionary
  0
DICTIONARY
  5
17
330
C
100
AcDbDictionary
  3
STANDARD
350
18
  0
DICTIONARY
  5
19
330
C
100
AcDbDictionary
  0
ENDSEC
  0
EOF
